<mxfile host="app.diagrams.net" agent="Mozilla/5.0 (Windows NT 10.0; Win64; x64) AppleWebKit/537.36 (KHTML, like Gecko) Chrome/138.0.0.0 Safari/537.36" version="28.0.7">
  <diagram name="Page-1" id="8EvsONjnVFSX35wT-RdC">
    <mxGraphModel dx="1426" dy="777" grid="1" gridSize="10" guides="1" tooltips="1" connect="1" arrows="1" fold="1" page="1" pageScale="1" pageWidth="827" pageHeight="1169" math="0" shadow="0">
      <root>
        <mxCell id="0" />
        <mxCell id="1" parent="0" />
        <mxCell id="9AoHptv_W4zECU8uDhXT-1" value="Species" style="swimlane;fontStyle=0;childLayout=stackLayout;horizontal=1;startSize=30;horizontalStack=0;resizeParent=1;resizeParentMax=0;resizeLast=0;collapsible=1;marginBottom=0;whiteSpace=wrap;html=1;" parent="1" vertex="1">
          <mxGeometry x="160" y="110" width="140" height="90" as="geometry" />
        </mxCell>
        <mxCell id="9AoHptv_W4zECU8uDhXT-2" value="&lt;div&gt;&lt;u&gt;id&lt;/u&gt;&lt;/div&gt;&lt;div&gt;common_name&lt;/div&gt;&lt;div&gt;scientific_name&lt;/div&gt;&lt;div&gt;category&lt;/div&gt;" style="text;strokeColor=none;fillColor=none;align=left;verticalAlign=middle;spacingLeft=4;spacingRight=4;overflow=hidden;points=[[0,0.5],[1,0.5]];portConstraint=eastwest;rotatable=0;whiteSpace=wrap;html=1;" parent="9AoHptv_W4zECU8uDhXT-1" vertex="1">
          <mxGeometry y="30" width="140" height="60" as="geometry" />
        </mxCell>
        <mxCell id="9AoHptv_W4zECU8uDhXT-5" value="Observation" style="swimlane;fontStyle=0;childLayout=stackLayout;horizontal=1;startSize=30;horizontalStack=0;resizeParent=1;resizeParentMax=0;resizeLast=0;collapsible=1;marginBottom=0;whiteSpace=wrap;html=1;" parent="1" vertex="1">
          <mxGeometry x="160" y="360" width="140" height="150" as="geometry" />
        </mxCell>
        <mxCell id="9AoHptv_W4zECU8uDhXT-6" value="&lt;div&gt;&lt;u&gt;id&lt;/u&gt;&lt;/div&gt;&lt;div&gt;observer_name&lt;/div&gt;&lt;div&gt;location&lt;/div&gt;&lt;div&gt;latitude&lt;/div&gt;&lt;div&gt;longitude&lt;/div&gt;&lt;div&gt;observation_date&lt;/div&gt;&lt;div&gt;comment&lt;/div&gt;" style="text;strokeColor=none;fillColor=none;align=left;verticalAlign=middle;spacingLeft=4;spacingRight=4;overflow=hidden;points=[[0,0.5],[1,0.5]];portConstraint=eastwest;rotatable=0;whiteSpace=wrap;html=1;" parent="9AoHptv_W4zECU8uDhXT-5" vertex="1">
          <mxGeometry y="30" width="140" height="120" as="geometry" />
        </mxCell>
        <mxCell id="9AoHptv_W4zECU8uDhXT-7" value="travel_log" style="swimlane;fontStyle=0;childLayout=stackLayout;horizontal=1;startSize=30;horizontalStack=0;resizeParent=1;resizeParentMax=0;resizeLast=0;collapsible=1;marginBottom=0;whiteSpace=wrap;html=1;" parent="1" vertex="1">
          <mxGeometry x="590" y="385" width="150" height="100" as="geometry" />
        </mxCell>
        <mxCell id="9AoHptv_W4zECU8uDhXT-8" value="&lt;div&gt;id&lt;/div&gt;travel_mode&lt;div&gt;&lt;div&gt;distance_km&lt;/div&gt;&lt;div&gt;co2_emission_kg&lt;/div&gt;&lt;/div&gt;&lt;div&gt;&lt;br&gt;&lt;/div&gt;" style="text;strokeColor=none;fillColor=none;align=left;verticalAlign=middle;spacingLeft=4;spacingRight=4;overflow=hidden;points=[[0,0.5],[1,0.5]];portConstraint=eastwest;rotatable=0;whiteSpace=wrap;html=1;" parent="9AoHptv_W4zECU8uDhXT-7" vertex="1">
          <mxGeometry y="30" width="150" height="70" as="geometry" />
        </mxCell>
        <mxCell id="9AoHptv_W4zECU8uDhXT-9" value="Est associé à" style="rounded=1;whiteSpace=wrap;html=1;" parent="1" vertex="1">
          <mxGeometry x="400" y="417.5" width="80" height="35" as="geometry" />
        </mxCell>
        <mxCell id="9AoHptv_W4zECU8uDhXT-10" value="" style="endArrow=none;html=1;rounded=0;exitX=0.986;exitY=0.408;exitDx=0;exitDy=0;exitPerimeter=0;" parent="1" source="9AoHptv_W4zECU8uDhXT-6" edge="1">
          <mxGeometry width="50" height="50" relative="1" as="geometry">
            <mxPoint x="310" y="430" as="sourcePoint" />
            <mxPoint x="400" y="439" as="targetPoint" />
          </mxGeometry>
        </mxCell>
        <mxCell id="9AoHptv_W4zECU8uDhXT-11" value="" style="endArrow=none;html=1;rounded=0;entryX=0.009;entryY=0.354;entryDx=0;entryDy=0;entryPerimeter=0;" parent="1" target="9AoHptv_W4zECU8uDhXT-8" edge="1">
          <mxGeometry width="50" height="50" relative="1" as="geometry">
            <mxPoint x="480" y="440" as="sourcePoint" />
            <mxPoint x="440" y="320" as="targetPoint" />
          </mxGeometry>
        </mxCell>
        <mxCell id="9AoHptv_W4zECU8uDhXT-12" value="1" style="text;html=1;align=center;verticalAlign=middle;whiteSpace=wrap;rounded=0;" parent="1" vertex="1">
          <mxGeometry x="330" y="410" width="40" height="20" as="geometry" />
        </mxCell>
        <mxCell id="9AoHptv_W4zECU8uDhXT-14" value="0..n" style="text;html=1;align=center;verticalAlign=middle;whiteSpace=wrap;rounded=0;" parent="1" vertex="1">
          <mxGeometry x="510" y="410" width="40" height="20" as="geometry" />
        </mxCell>
        <mxCell id="9AoHptv_W4zECU8uDhXT-15" value="Est observé dans" style="rounded=1;whiteSpace=wrap;html=1;" parent="1" vertex="1">
          <mxGeometry x="190" y="260" width="80" height="35" as="geometry" />
        </mxCell>
        <mxCell id="9AoHptv_W4zECU8uDhXT-16" value="" style="endArrow=none;html=1;rounded=0;exitX=0.5;exitY=0;exitDx=0;exitDy=0;entryX=0.5;entryY=0.97;entryDx=0;entryDy=0;entryPerimeter=0;" parent="1" source="9AoHptv_W4zECU8uDhXT-15" target="9AoHptv_W4zECU8uDhXT-2" edge="1">
          <mxGeometry width="50" height="50" relative="1" as="geometry">
            <mxPoint x="390" y="370" as="sourcePoint" />
            <mxPoint x="440" y="320" as="targetPoint" />
          </mxGeometry>
        </mxCell>
        <mxCell id="9AoHptv_W4zECU8uDhXT-17" value="" style="endArrow=none;html=1;rounded=0;exitX=0.5;exitY=0;exitDx=0;exitDy=0;entryX=0.5;entryY=0.97;entryDx=0;entryDy=0;entryPerimeter=0;" parent="1" edge="1">
          <mxGeometry width="50" height="50" relative="1" as="geometry">
            <mxPoint x="229.5" y="357" as="sourcePoint" />
            <mxPoint x="229.5" y="295" as="targetPoint" />
          </mxGeometry>
        </mxCell>
        <mxCell id="9AoHptv_W4zECU8uDhXT-18" value="1" style="text;html=1;align=center;verticalAlign=middle;whiteSpace=wrap;rounded=0;" parent="1" vertex="1">
          <mxGeometry x="250" y="220" width="40" height="20" as="geometry" />
        </mxCell>
        <mxCell id="9AoHptv_W4zECU8uDhXT-19" value="0..n" style="text;html=1;align=center;verticalAlign=middle;whiteSpace=wrap;rounded=0;" parent="1" vertex="1">
          <mxGeometry x="250" y="320" width="40" height="20" as="geometry" />
        </mxCell>
      </root>
    </mxGraphModel>
  </diagram>
</mxfile>
